<svg xmlns="http://www.w3.org/2000/svg" width="29.125" height="28.771" viewBox="0 0 29.125 28.771">
  <g id="Group_74" data-name="Group 74" transform="translate(-35.875 -72.594)">
    <g id="Group_66" data-name="Group 66" transform="translate(42.449 80.817)">
      <path id="Path_51" data-name="Path 51" d="M89.076,68.283a7.968,7.968,0,1,1,7.968-7.968A7.977,7.977,0,0,1,89.076,68.283Zm0-15.012a7.044,7.044,0,1,0,7.044,7.044A7.052,7.052,0,0,0,89.076,53.271Zm-1.3,10.353a.461.461,0,0,1-.307-.8L90.2,60.315l-2.731-2.509a.461.461,0,0,1-.029-.65.46.46,0,0,1,.65-.029L91.2,59.976l.022.022a.464.464,0,0,1-.023.657L88.091,63.5a.458.458,0,0,1-.313.123Z" transform="translate(-81.108 -52.347)" fill="#302e45" stroke="#302e45" stroke-width="0.75"/>
    </g>
    <g id="folder" transform="translate(35.875 72.594)">
      <path id="Path_53" data-name="Path 53" d="M24.446,36.07h-6.9A3.111,3.111,0,0,1,14.5,32.9a.831.831,0,0,0-.817-.851H4.679A4.785,4.785,0,0,0,0,36.921V55.95a4.785,4.785,0,0,0,4.679,4.871H24.446a4.785,4.785,0,0,0,4.679-4.871V40.935A4.78,4.78,0,0,0,24.446,36.07Zm3.044,19.873a3.111,3.111,0,0,1-3.044,3.17H4.679a3.111,3.111,0,0,1-3.044-3.17V36.921a3.111,3.111,0,0,1,3.044-3.17H12.94a4.744,4.744,0,0,0,4.606,4.02h6.9a3.111,3.111,0,0,1,3.044,3.17v15Z" transform="translate(0 -32.05)" fill="#302e45"/>
    </g>
  </g>
</svg>
