<svg xmlns="http://www.w3.org/2000/svg" width="21.268" height="21.009" viewBox="0 0 21.268 21.009">
  <g id="Group_75" data-name="Group 75" transform="translate(-35.875 -72.594)">
    <g id="Group_66" data-name="Group 66" transform="translate(-1.188 -4.922)">
      <path id="Path_51" data-name="Path 51" d="M86.926,63.984a5.818,5.818,0,1,1,5.818-5.818A5.825,5.825,0,0,1,86.926,63.984Zm0-10.962a5.144,5.144,0,1,0,5.144,5.144A5.15,5.15,0,0,0,86.926,53.022Zm-.95,7.56A.336.336,0,0,1,85.752,60l2-1.832-1.994-1.832a.337.337,0,0,1-.021-.475.336.336,0,0,1,.475-.021l2.268,2.08.016.016a.339.339,0,0,1-.017.48l-2.27,2.078a.335.335,0,0,1-.229.09Z" transform="translate(-39.245 31.174)" fill="#ec008c" stroke="#ec008c" stroke-width="0.75"/>
    </g>
    <g id="folder" transform="translate(35.875 40.544)">
      <path id="Path_53" data-name="Path 53" d="M17.851,34.986H12.813a2.272,2.272,0,0,1-2.223-2.315.607.607,0,0,0-.6-.621H3.416A3.494,3.494,0,0,0,0,35.607V49.5a3.494,3.494,0,0,0,3.416,3.557H17.851A3.494,3.494,0,0,0,21.268,49.5V38.538A3.49,3.49,0,0,0,17.851,34.986ZM20.074,49.5a2.272,2.272,0,0,1-2.223,2.315H3.416A2.272,2.272,0,0,1,1.193,49.5V35.607a2.272,2.272,0,0,1,2.223-2.315H9.449a3.464,3.464,0,0,0,3.363,2.936h5.039a2.272,2.272,0,0,1,2.223,2.315V49.5Z" transform="translate(0)" fill="#ec008c"/>
    </g>
  </g>
</svg>
