<svg xmlns="http://www.w3.org/2000/svg" width="18.638" height="18.638" viewBox="0 0 18.638 18.638">
  <path id="Path_71" data-name="Path 71" d="M90.427,70.985a9.319,9.319,0,1,1,9.319-9.319A9.329,9.329,0,0,1,90.427,70.985Zm0-17.557a8.238,8.238,0,1,0,8.239,8.239A8.248,8.248,0,0,0,90.427,53.428ZM88.906,65.536a.539.539,0,0,1-.36-.936l3.2-2.933-3.194-2.934a.539.539,0,0,1-.034-.76.539.539,0,0,1,.76-.033l3.633,3.331.026.026a.543.543,0,0,1-.027.768l-3.635,3.328a.536.536,0,0,1-.367.144Z" transform="translate(-81.108 -52.347)" fill="#ec008c"/>
</svg>
