<?xml version="1.0" encoding="iso-8859-1"?>
<!-- Uploaded to: SVG Repo, www.svgrepo.com, Generator: SVG Repo Mixer Tools -->
<!DOCTYPE svg PUBLIC "-//W3C//DTD SVG 1.1//EN" "http://www.w3.org/Graphics/SVG/1.1/DTD/svg11.dtd">
<svg fill="#000000" height="800px" width="800px" version="1.1" id="Capa_1" xmlns="http://www.w3.org/2000/svg" xmlns:xlink="http://www.w3.org/1999/xlink" 
	 viewBox="0 0 58 58" xml:space="preserve">
<g>
	<path d="M6.5,41v15c0,1.009,1.22,2,2.463,2h40.074c1.243,0,2.463-0.991,2.463-2V41H6.5z M27.021,51.566
		c0,0.474-0.087,0.873-0.26,1.196c-0.174,0.323-0.406,0.583-0.697,0.779c-0.292,0.196-0.627,0.333-1.005,0.41
		s-0.769,0.116-1.169,0.116c-0.201,0-0.436-0.021-0.704-0.062s-0.547-0.104-0.834-0.191s-0.563-0.185-0.827-0.294
		c-0.265-0.109-0.488-0.232-0.67-0.369l0.697-1.107c0.091,0.063,0.221,0.13,0.39,0.198s0.353,0.132,0.554,0.191
		c0.2,0.06,0.41,0.111,0.629,0.157s0.424,0.068,0.615,0.068c0.482,0,0.868-0.094,1.155-0.28s0.439-0.504,0.458-0.95v-7.711h1.668
		V51.566z M34.958,52.298c-0.15,0.342-0.362,0.643-0.636,0.902s-0.611,0.467-1.012,0.622c-0.401,0.155-0.857,0.232-1.367,0.232
		c-0.219,0-0.444-0.012-0.677-0.034s-0.468-0.062-0.704-0.116c-0.237-0.055-0.463-0.13-0.677-0.226s-0.399-0.212-0.554-0.349
		l0.287-1.176c0.127,0.073,0.289,0.144,0.485,0.212s0.398,0.132,0.608,0.191c0.209,0.06,0.419,0.107,0.629,0.144
		c0.209,0.036,0.405,0.055,0.588,0.055c0.556,0,0.982-0.13,1.278-0.39s0.444-0.645,0.444-1.155c0-0.31-0.105-0.574-0.314-0.793
		c-0.21-0.219-0.472-0.417-0.786-0.595s-0.654-0.355-1.019-0.533c-0.365-0.178-0.707-0.388-1.025-0.629
		c-0.319-0.241-0.584-0.526-0.793-0.854c-0.21-0.328-0.314-0.738-0.314-1.23c0-0.446,0.082-0.843,0.246-1.189
		s0.385-0.641,0.663-0.882s0.602-0.426,0.971-0.554s0.759-0.191,1.169-0.191c0.419,0,0.843,0.039,1.271,0.116
		c0.428,0.077,0.774,0.203,1.039,0.376c-0.055,0.118-0.119,0.248-0.191,0.39c-0.073,0.142-0.142,0.273-0.205,0.396
		c-0.064,0.123-0.119,0.226-0.164,0.308c-0.046,0.082-0.073,0.128-0.082,0.137c-0.055-0.027-0.116-0.063-0.185-0.109
		s-0.167-0.091-0.294-0.137c-0.128-0.046-0.297-0.077-0.506-0.096c-0.21-0.019-0.479-0.014-0.807,0.014
		c-0.183,0.019-0.355,0.07-0.52,0.157s-0.311,0.193-0.438,0.321c-0.128,0.128-0.229,0.271-0.301,0.431
		c-0.073,0.159-0.109,0.313-0.109,0.458c0,0.364,0.104,0.658,0.314,0.882c0.209,0.224,0.469,0.419,0.779,0.588
		c0.31,0.169,0.646,0.333,1.012,0.492c0.364,0.159,0.704,0.354,1.019,0.581s0.576,0.513,0.786,0.854
		c0.209,0.342,0.314,0.781,0.314,1.319C35.184,51.603,35.108,51.956,34.958,52.298z"/>
	<path d="M51.5,39V13.978c0-0.766-0.092-1.333-0.55-1.792L39.313,0.55C38.964,0.201,38.48,0,37.985,0H8.963
		C7.777,0,6.5,0.916,6.5,2.926V39H51.5z M29.5,32c0,0.552-0.447,1-1,1s-1-0.448-1-1v-3c0-0.552,0.447-1,1-1s1,0.448,1,1V32z
		 M37.5,3.391c0-0.458,0.553-0.687,0.877-0.363l10.095,10.095C48.796,13.447,48.567,14,48.109,14H37.5V3.391z M36.5,23v-4
		c0-0.551-0.448-1-1-1c-0.553,0-1-0.448-1-1s0.447-1,1-1c1.654,0,3,1.346,3,3v4c0,1.103,0.897,2,2,2c0.553,0,1,0.448,1,1
		s-0.447,1-1,1c-1.103,0-2,0.897-2,2v4c0,1.654-1.346,3-3,3c-0.553,0-1-0.448-1-1s0.447-1,1-1c0.552,0,1-0.449,1-1v-4
		c0-1.2,0.542-2.266,1.382-3C37.042,25.266,36.5,24.2,36.5,23z M28.5,21c0.828,0,1.5,0.672,1.5,1.5S29.328,24,28.5,24
		S27,23.328,27,22.5S27.672,21,28.5,21z M16.5,25c1.103,0,2-0.897,2-2v-4c0-1.654,1.346-3,3-3c0.553,0,1,0.448,1,1s-0.447,1-1,1
		c-0.552,0-1,0.449-1,1v4c0,1.2-0.542,2.266-1.382,3c0.84,0.734,1.382,1.8,1.382,3v4c0,0.551,0.448,1,1,1c0.553,0,1,0.448,1,1
		s-0.447,1-1,1c-1.654,0-3-1.346-3-3v-4c0-1.103-0.897-2-2-2c-0.553,0-1-0.448-1-1S15.947,25,16.5,25z"/>
</g>
</svg>