<svg width="14" height="14" viewBox="0 0 14 14" fill="none" xmlns="http://www.w3.org/2000/svg">
<path fill-rule="evenodd" clip-rule="evenodd" d="M4.33331 0.333496C4.7015 0.333496 4.99998 0.631973 4.99998 1.00016C4.99998 1.36835 4.7015 1.66683 4.33331 1.66683H2.33331C1.96512 1.66683 1.66665 1.96531 1.66665 2.3335V11.6668C1.66665 12.035 1.96512 12.3335 2.33331 12.3335H11.6666C12.0348 12.3335 12.3333 12.035 12.3333 11.6668V9.66683C12.3333 9.32494 12.5907 9.04316 12.9222 9.00465L13 9.00016C13.3682 9.00016 13.6666 9.29864 13.6666 9.66683V11.6668C13.6666 12.7714 12.7712 13.6668 11.6666 13.6668H2.33331C1.22874 13.6668 0.333313 12.7714 0.333313 11.6668V2.3335C0.333313 1.22893 1.22874 0.333496 2.33331 0.333496H4.33331ZM12.3304 0.333496C13.0668 0.333496 13.6637 0.93045 13.6637 1.66683V4.3335C13.6637 4.70169 13.3652 5.00016 12.9971 5.00016C12.6289 5.00016 12.3304 4.70169 12.3304 4.3335L12.3293 2.6095L7.47153 7.47142C7.21126 7.73185 6.78915 7.73198 6.52872 7.47171C6.26829 7.21145 6.26816 6.78934 6.52843 6.52891L11.3866 1.66683H9.66665C9.32476 1.66683 9.04297 1.40947 9.00447 1.07791L8.99998 1.00016C8.99998 0.631973 9.29846 0.333496 9.66665 0.333496H12.3304Z" fill="#E50076"/>
</svg>
