<svg xmlns="http://www.w3.org/2000/svg" width="15.326" height="28.454" viewBox="0 0 15.326 28.454">
  <g id="lightning-bolt-shadow" transform="translate(-109.597)">
    <path id="Path_29" data-name="Path 29" d="M124.732,7.49a.8.8,0,0,0-.581-.257.944.944,0,0,0-.206.034l-6.771,1.676L120.1,1.026a.7.7,0,0,0,.086-.308.678.678,0,0,0-.222-.5A.758.758,0,0,0,119.414,0h-5.609a.776.776,0,0,0-.479.154.733.733,0,0,0-.274.393l-3.437,14.108a.638.638,0,0,0,.222.667.792.792,0,0,0,.53.188.909.909,0,0,0,.205-.017l6.942-1.727-3.369,13.817a.648.648,0,0,0,.077.513.729.729,0,0,0,.436.325,1.461,1.461,0,0,0,.24.034.752.752,0,0,0,.718-.427l9.234-19.785A.642.642,0,0,0,124.732,7.49Z" fill="#302e45"/>
  </g>
</svg>
