<svg xmlns="http://www.w3.org/2000/svg" width="8.026" height="14.901" viewBox="0 0 8.026 14.901">
  <g id="lightning-bolt-shadow" transform="translate(-109.597)">
    <path id="Path_29" data-name="Path 29" d="M117.523,3.922a.421.421,0,0,0-.3-.134.494.494,0,0,0-.108.018l-3.546.878L115.1.537a.367.367,0,0,0,.045-.161.355.355,0,0,0-.116-.264A.4.4,0,0,0,114.738,0H111.8a.406.406,0,0,0-.251.081.384.384,0,0,0-.143.206l-1.8,7.388a.334.334,0,0,0,.116.349.415.415,0,0,0,.278.1.476.476,0,0,0,.107-.009l3.636-.9-1.764,7.236a.339.339,0,0,0,.04.269.382.382,0,0,0,.228.17.765.765,0,0,0,.125.018.394.394,0,0,0,.376-.224l4.836-10.361A.336.336,0,0,0,117.523,3.922Z" transform="translate(0)" fill="#ec008c"/>
  </g>
</svg>
