<svg xmlns="http://www.w3.org/2000/svg" width="27" height="27" viewBox="0 0 27 27">
  <path id="Path_70" data-name="Path 70" d="M94.608,79.347a13.5,13.5,0,1,1,13.5-13.5A13.515,13.515,0,0,1,94.608,79.347Zm0-25.434a11.935,11.935,0,1,0,11.935,11.935A11.948,11.948,0,0,0,94.608,53.912ZM92.4,71.453a.78.78,0,0,1-.521-1.356l4.636-4.25L91.892,61.6a.781.781,0,0,1-.049-1.1.78.78,0,0,1,1.1-.049l5.263,4.826.038.038a.786.786,0,0,1-.039,1.113L92.94,71.244a.777.777,0,0,1-.531.209Z" transform="translate(-81.108 -52.347)" fill="#302e45"/>
</svg>
